<?xml version="1.0" standalone="no"?><!DOCTYPE svg PUBLIC "-//W3C//DTD SVG 1.1//EN" "http://www.w3.org/Graphics/SVG/1.1/DTD/svg11.dtd"><svg t="1603940641926" class="icon" viewBox="0 0 1024 1024" version="1.1" xmlns="http://www.w3.org/2000/svg" p-id="15579" xmlns:xlink="http://www.w3.org/1999/xlink" width="200" height="200"><defs><style type="text/css"></style></defs><path d="M234.63 191.97h-85.32v607.905c0 17.67 14.325 31.995 31.995 31.995h490.59c17.67 0 31.995-14.325 31.995-31.995V191.97H298.62v213.3h-63.99v-213.3z m533.25-63.99h74.655c53.011 0 95.985 42.974 95.985 95.985v255.96c0 101.025-73.93 184.783-170.64 200.123v119.827c0 53.011-42.974 95.985-95.985 95.985h-490.59c-53.011 0-95.985-42.974-95.985-95.985V127.98h682.56z m0 63.99v422.89c61.147-14.444 106.65-69.376 106.65-134.935v-255.96c0-17.67-14.325-31.995-31.995-31.995H767.88z" p-id="15580" fill="#8a8a8a"></path></svg>