<?xml version="1.0" standalone="no"?><!DOCTYPE svg PUBLIC "-//W3C//DTD SVG 1.1//EN" "http://www.w3.org/Graphics/SVG/1.1/DTD/svg11.dtd"><svg t="1615352368096" class="icon" viewBox="0 0 1024 1024" version="1.1" xmlns="http://www.w3.org/2000/svg" p-id="2633" xmlns:xlink="http://www.w3.org/1999/xlink" width="200" height="200"><defs><style type="text/css"></style></defs><path d="M896 182.613333v58.453334a8.32 8.32 0 0 1-8.533333 8.533333h-68.266667a8.533333 8.533333 0 0 1-8.533333-8.533333V192a21.333333 21.333333 0 0 0-21.333334-21.333333H234.666667a21.333333 21.333333 0 0 0-21.333334 21.333333v49.066667a8.533333 8.533333 0 0 1-8.533333 8.533333H136.533333a8.32 8.32 0 0 1-8.533333-8.533333V182.613333A85.333333 85.333333 0 0 0 85.333333 256v512a85.333333 85.333333 0 0 0 42.666667 73.386667v-42.666667a8.533333 8.533333 0 0 1 8.533333-8.533333h68.266667a8.533333 8.533333 0 0 1 8.533333 8.533333V832a21.333333 21.333333 0 0 0 21.333334 21.333333h554.666666a21.333333 21.333333 0 0 0 21.333334-21.333333v-34.133333a8.533333 8.533333 0 0 1 8.533333-8.533334h68.266667a8.533333 8.533333 0 0 1 8.533333 8.533334v42.666666a85.333333 85.333333 0 0 0 42.666667-72.533333V256a85.333333 85.333333 0 0 0-42.666667-73.386667zM128 297.173333a8.32 8.32 0 0 1 8.533333-8.533333h68.266667a8.32 8.32 0 0 1 8.533333 8.533333v110.933334a8.533333 8.533333 0 0 1-8.533333 8.533333H136.106667a8.533333 8.533333 0 0 1-8.533334-8.533333z m85.333333 444.8a8.533333 8.533333 0 0 1-8.533333 8.533334H136.32a8.32 8.32 0 0 1-8.533333-8.533334v-110.933333a8.32 8.32 0 0 1 8.533333-8.533333h68.266667a8.32 8.32 0 0 1 8.533333 8.533333zM213.333333 576a8.533333 8.533333 0 0 1-8.533333 8.533333H136.32A8.533333 8.533333 0 0 1 128 576v-110.933333a8.533333 8.533333 0 0 1 8.533333-8.533334h68.266667a8.533333 8.533333 0 0 1 8.533333 8.533334z m554.666667 180.053333a42.666667 42.666667 0 0 1-42.666667 42.666667H298.666667a42.666667 42.666667 0 0 1-42.666667-42.666667v-170.666666a42.666667 42.666667 0 0 1 42.666667-42.666667h426.666666a42.666667 42.666667 0 0 1 42.666667 42.666667z m0-313.813333a42.666667 42.666667 0 0 1-42.666667 42.666667H298.666667a42.666667 42.666667 0 0 1-42.666667-42.666667v-170.666667a42.666667 42.666667 0 0 1 42.666667-42.666666h426.666666a42.666667 42.666667 0 0 1 42.666667 42.666666z m42.666667-144a8.32 8.32 0 0 1 8.533333-8.533333h68.266667a8.32 8.32 0 0 1 8.533333 8.533333v110.933333a8.533333 8.533333 0 0 1-8.533333 8.533334h-68.266667a8.533333 8.533333 0 0 1-8.533333-8.533334z m85.333333 444.8a8.533333 8.533333 0 0 1-8.533333 8.533333h-68.266667a8.32 8.32 0 0 1-8.533333-8.533333v-110.933333a8.32 8.32 0 0 1 8.533333-8.533334h68.266667a8.32 8.32 0 0 1 8.533333 8.533334zM896 576a8.533333 8.533333 0 0 1-8.533333 8.533333h-68.266667a8.533333 8.533333 0 0 1-8.533333-8.533333v-110.933333a8.533333 8.533333 0 0 1 8.533333-8.533334h68.266667a8.533333 8.533333 0 0 1 8.533333 8.533334z" p-id="2634" fill="#8a8a8a"></path></svg>