<?xml version="1.0" standalone="no"?><!DOCTYPE svg PUBLIC "-//W3C//DTD SVG 1.1//EN" "http://www.w3.org/Graphics/SVG/1.1/DTD/svg11.dtd"><svg t="1603940633372" class="icon" viewBox="0 0 1024 1024" version="1.1" xmlns="http://www.w3.org/2000/svg" p-id="15401" xmlns:xlink="http://www.w3.org/1999/xlink" width="200" height="200"><defs><style type="text/css"></style></defs><path d="M963.44 513.27c0-51.84-74.41-89.49-180-112.24 58.55-90.72 84.59-169.95 48-206.59s-115.85-10.6-206.58 47.94c-22.75-105.6-60.41-180-112.25-180s-89.48 74.4-112.23 180c-90.71-58.54-169.93-84.57-206.6-47.93S183.11 310.31 241.66 401c-105.61 22.75-180 60.4-180 112.24s74.41 89.5 180 112.25c-58.54 90.72-84.58 169.94-47.94 206.58C205.33 843.72 221.2 849 240.39 849c41.32 0 97.95-24.93 159.91-64.91 22.75 105.62 60.41 180 112.24 180s89.5-74.41 112.25-180c62 40 118.58 64.89 159.89 64.89 19.17 0 35.07-5.32 46.69-16.94C868 795.46 842 716.24 783.43 625.52 889 602.77 963.44 565.11 963.44 513.27zM783.14 219c8.16 0 14.27 1.88 18 5.63 16.82 16.82-4.07 80.56-63.1 167.82-29.61-4.86-60.93-8.67-93.22-11.47-2.79-32.31-6.62-63.65-11.48-93.28 67.79-45.83 121.39-68.7 149.8-68.7zM607.75 513.27c0 13.37-0.24 26.35-0.56 39.19-8.86 9.31-17.87 18.66-27.33 28.12s-18.86 18.48-28.12 27.34c-12.84 0.31-25.83 0.55-39.2 0.55s-26.36-0.24-39.2-0.55c-9.31-8.86-18.66-17.88-28.12-27.34s-18.46-18.79-27.31-28.09c-0.32-12.85-0.56-25.84-0.56-39.22s0.24-26.37 0.56-39.22c8.85-9.3 17.86-18.64 27.31-28.1s18.74-18.5 28-27.32c12.88-0.31 25.91-0.55 39.33-0.55s26.44 0.24 39.33 0.55q13.88 13.23 28 27.32c9.46 9.46 18.47 18.81 27.33 28.12 0.3 12.84 0.54 25.83 0.54 39.2zM569.1 376.39c-7.94-7.39-15.89-14.73-23.91-21.88q25.41-21.18 49.27-39 4.24 29.48 7.3 62.39-16.25-0.9-32.66-1.51z m-113.11 0q-16.39 0.58-32.65 1.51c2-22 4.47-42.73 7.29-62.37q23.83 17.84 49.27 39c-8.02 7.14-15.98 14.47-23.9 21.86z m-80.33 80.32c-7.39 8-14.73 15.91-21.9 24q-21.18-25.44-39-49.3c19.65-2.82 40.43-5.29 62.4-7.29q-0.91 16.19-1.5 32.59z m0 113.12q0.6 16.39 1.52 32.66-33-3-62.41-7.3 17.85-23.85 39-49.31c7.16 8.03 14.5 15.99 21.89 23.95z m80.27 80.33q12 11.12 24 21.88-25.44 21.19-49.3 39-4.25-29.46-7.3-62.38 16.22 0.92 32.6 1.5z m113.21 0q16.38-0.58 32.61-1.51c-2 22-4.47 42.73-7.29 62.38q-23.85-17.87-49.33-39 12.06-10.77 24.01-21.87z m80.3-80.36c7.39-7.94 14.72-15.9 21.88-23.92q21.2 25.44 39 49.31c-19.64 2.82-40.42 5.29-62.39 7.29q0.92-16.25 1.51-32.68z m0-113.06q-0.6-16.42-1.52-32.67c22 2 42.74 4.47 62.38 7.29q-17.87 23.85-39 49.3c-7.14-8.03-14.47-15.98-21.86-23.92z m-136.9-351.65c23.78 0 54.11 59.91 74.07 163.44-24.39 17.51-49.23 36.84-74.06 57.72-24.84-20.88-49.67-40.21-74.07-57.73 19.97-103.52 50.29-163.43 74.06-163.43zM223.91 224.64c3.76-3.75 9.85-5.63 18-5.63 28.41 0 82 22.86 149.8 68.71-4.86 29.62-8.69 61-11.48 93.27-32.23 2.79-63.6 6.61-93.23 11.47-59-87.26-79.9-151-63.09-167.82zM104.36 513.27c0-23.77 59.91-54.09 163.44-74.06 17.52 24.39 36.85 49.22 57.73 74.06-20.89 24.84-40.22 49.67-57.74 74.07-103.53-19.96-163.43-50.29-163.43-74.07z m119.55 288.62c-16.8-16.81 4.08-80.55 63.1-167.8 29.61 4.86 60.95 8.68 93.25 11.48 2.8 32.29 6.62 63.62 11.48 93.23-87.23 59.01-150.98 79.93-167.83 63.09z m288.63 119.55c-23.76 0-54.07-59.87-74-163.33 24.37-17.51 49.21-36.9 74-57.76 24.83 20.87 49.68 40.26 74.06 57.78-19.98 103.45-50.29 163.31-74.06 163.31z m288.62-119.55c-16.82 16.76-80.55-4.11-167.79-63.11 4.86-29.6 8.67-60.93 11.47-93.22 32.29-2.79 63.62-6.61 93.23-11.47 59.02 87.25 79.93 150.99 63.09 167.8z m-43.88-214.55c-17.51-24.4-36.85-49.23-57.73-74.07 20.88-24.84 40.21-49.67 57.72-74.06 103.54 20 163.44 50.29 163.44 74.06s-59.9 54.11-163.43 74.07z" p-id="15402" fill="#8a8a8a"></path></svg>